<mxfile host="app.diagrams.net" modified="2024-07-09T03:46:45.556Z" agent="Mozilla/5.0 (Windows NT 10.0; WOW64) AppleWebKit/537.36 (KHTML, like Gecko) Chrome/94.0.4606.71 Safari/537.36 SE 2.X MetaSr 1.0" etag="acBP75AFFCPQJRsQuRjE" version="24.6.4" type="github">
  <diagram name="第 1 页" id="ANI2F4AvsXiIucCKKWBM">
    <mxGraphModel dx="2876" dy="1063" grid="1" gridSize="10" guides="1" tooltips="1" connect="1" arrows="1" fold="1" page="1" pageScale="1" pageWidth="827" pageHeight="1169" math="0" shadow="0">
      <root>
        <mxCell id="0" />
        <mxCell id="1" parent="0" />
        <mxCell id="_UZ0ICPovGzDHKH6tCGx-6" value="" style="whiteSpace=wrap;html=1;" vertex="1" parent="1">
          <mxGeometry x="-810" y="20" width="610" height="450" as="geometry" />
        </mxCell>
        <mxCell id="_UZ0ICPovGzDHKH6tCGx-14" value="" style="group" vertex="1" connectable="0" parent="1">
          <mxGeometry x="-790" y="100" width="500" height="140" as="geometry" />
        </mxCell>
        <mxCell id="_UZ0ICPovGzDHKH6tCGx-8" value="" style="rounded=0;whiteSpace=wrap;html=1;" vertex="1" parent="_UZ0ICPovGzDHKH6tCGx-14">
          <mxGeometry width="500" height="140" as="geometry" />
        </mxCell>
        <mxCell id="_UZ0ICPovGzDHKH6tCGx-9" value="&lt;h1 style=&quot;margin-top: 0px;&quot;&gt;&lt;span style=&quot;font-weight: normal;&quot;&gt;&lt;font style=&quot;font-size: 16px;&quot;&gt;异常：PSQLException&lt;/font&gt;&lt;/span&gt;&lt;/h1&gt;&lt;div&gt;&lt;span style=&quot;font-weight: normal;&quot;&gt;&lt;font style=&quot;font-size: 16px;&quot;&gt;次数：19&lt;/font&gt;&lt;/span&gt;&lt;/div&gt;&lt;div&gt;&lt;span style=&quot;font-weight: normal;&quot;&gt;&lt;font style=&quot;font-size: 16px;&quot;&gt;&lt;br&gt;&lt;/font&gt;&lt;/span&gt;&lt;/div&gt;&lt;div&gt;&lt;span style=&quot;font-weight: normal;&quot;&gt;&lt;font style=&quot;font-size: 16px;&quot;&gt;涉及链路：（点击查看列表）&lt;/font&gt;&lt;/span&gt;&lt;/div&gt;" style="text;html=1;whiteSpace=wrap;overflow=hidden;rounded=0;" vertex="1" parent="_UZ0ICPovGzDHKH6tCGx-14">
          <mxGeometry x="10" y="10" width="230" height="110" as="geometry" />
        </mxCell>
        <mxCell id="_UZ0ICPovGzDHKH6tCGx-10" value="&lt;h1 style=&quot;margin-top: 0px; font-size: 16px;&quot;&gt;&lt;span style=&quot;font-size: 16px; font-weight: 400;&quot;&gt;类型：&lt;/span&gt;&lt;span style=&quot;font-weight: normal;&quot;&gt;POSTGRESQL&lt;/span&gt;&lt;/h1&gt;&lt;div&gt;&lt;span style=&quot;font-weight: normal; font-size: 16px;&quot;&gt;地址&lt;/span&gt;&lt;span style=&quot;font-weight: normal;&quot;&gt;&lt;font size=&quot;1&quot;&gt;：&lt;/font&gt;&lt;/span&gt;&lt;span style=&quot;color: rgb(4, 81, 165); background-color: rgb(255, 255, 255); font-family: IBMPlexMono, &amp;quot;Courier New&amp;quot;, monospace, Consolas, &amp;quot;Courier New&amp;quot;, monospace; white-space: pre;&quot;&gt;&lt;font style=&quot;font-size: 16px;&quot;&gt;192.168.1.213:5432&lt;/font&gt;&lt;/span&gt;&lt;/div&gt;" style="text;html=1;whiteSpace=wrap;overflow=hidden;rounded=0;" vertex="1" parent="_UZ0ICPovGzDHKH6tCGx-14">
          <mxGeometry x="250" y="10" width="230" height="110" as="geometry" />
        </mxCell>
        <mxCell id="_UZ0ICPovGzDHKH6tCGx-15" value="" style="group" vertex="1" connectable="0" parent="1">
          <mxGeometry x="-790" y="280" width="500" height="160" as="geometry" />
        </mxCell>
        <mxCell id="_UZ0ICPovGzDHKH6tCGx-16" value="" style="rounded=0;whiteSpace=wrap;html=1;" vertex="1" parent="_UZ0ICPovGzDHKH6tCGx-15">
          <mxGeometry width="500" height="149.33333333333331" as="geometry" />
        </mxCell>
        <mxCell id="_UZ0ICPovGzDHKH6tCGx-17" value="&lt;h1 style=&quot;margin-top: 0px;&quot;&gt;&lt;span style=&quot;font-size: 19px; font-weight: normal;&quot;&gt;&lt;font style=&quot;font-size: 16px;&quot;&gt;异常：&lt;/font&gt;&lt;/span&gt;&lt;font style=&quot;font-size: 16px; font-weight: normal;&quot;&gt;STRING-META-DATA-NOT-FOUND&lt;/font&gt;&lt;/h1&gt;&lt;div&gt;&lt;span style=&quot;font-weight: normal;&quot;&gt;&lt;font style=&quot;font-size: 16px;&quot;&gt;次数：6&lt;/font&gt;&lt;/span&gt;&lt;/div&gt;&lt;div&gt;&lt;span style=&quot;font-weight: normal;&quot;&gt;&lt;font style=&quot;font-size: 16px;&quot;&gt;&lt;br&gt;&lt;/font&gt;&lt;/span&gt;&lt;/div&gt;&lt;div&gt;&lt;span style=&quot;font-weight: normal;&quot;&gt;&lt;font style=&quot;font-size: 16px;&quot;&gt;涉及链路：（点击查看列表）&lt;/font&gt;&lt;/span&gt;&lt;/div&gt;" style="text;html=1;whiteSpace=wrap;overflow=hidden;rounded=0;" vertex="1" parent="_UZ0ICPovGzDHKH6tCGx-15">
          <mxGeometry x="10" y="10.666666666666666" width="220" height="149.33333333333331" as="geometry" />
        </mxCell>
        <mxCell id="_UZ0ICPovGzDHKH6tCGx-18" value="&lt;h1 style=&quot;margin-top: 0px; font-size: 16px;&quot;&gt;&lt;span style=&quot;font-size: 16px; font-weight: 400;&quot;&gt;类型：&lt;/span&gt;&lt;span style=&quot;font-weight: normal;&quot;&gt;POSTGRESQL&lt;/span&gt;&lt;/h1&gt;&lt;div&gt;&lt;span style=&quot;font-weight: normal; font-size: 16px;&quot;&gt;地址&lt;/span&gt;&lt;span style=&quot;font-weight: normal;&quot;&gt;&lt;font size=&quot;1&quot;&gt;：&lt;/font&gt;&lt;/span&gt;&lt;span style=&quot;color: rgb(4, 81, 165); background-color: rgb(255, 255, 255); font-family: IBMPlexMono, &amp;quot;Courier New&amp;quot;, monospace, Consolas, &amp;quot;Courier New&amp;quot;, monospace; white-space: pre;&quot;&gt;&lt;font style=&quot;font-size: 16px;&quot;&gt;192.168.1.213:5432&lt;/font&gt;&lt;/span&gt;&lt;/div&gt;" style="text;html=1;whiteSpace=wrap;overflow=hidden;rounded=0;" vertex="1" parent="_UZ0ICPovGzDHKH6tCGx-15">
          <mxGeometry x="250" y="10.666666666666666" width="230" height="117.33333333333333" as="geometry" />
        </mxCell>
        <mxCell id="_UZ0ICPovGzDHKH6tCGx-19" value="" style="endArrow=classic;html=1;rounded=0;exitX=1.022;exitY=0.829;exitDx=0;exitDy=0;exitPerimeter=0;entryX=-0.008;entryY=0.456;entryDx=0;entryDy=0;entryPerimeter=0;" edge="1" parent="1" source="_UZ0ICPovGzDHKH6tCGx-17" target="_UZ0ICPovGzDHKH6tCGx-20">
          <mxGeometry width="50" height="50" relative="1" as="geometry">
            <mxPoint x="-180" y="410" as="sourcePoint" />
            <mxPoint x="-80" y="180" as="targetPoint" />
          </mxGeometry>
        </mxCell>
        <mxCell id="_UZ0ICPovGzDHKH6tCGx-20" value="&lt;div style=&quot;background-color: rgb(255, 255, 255); font-family: IBMPlexMono, &amp;quot;Courier New&amp;quot;, monospace, Consolas, &amp;quot;Courier New&amp;quot;, monospace; line-height: 18px; white-space: pre; font-size: 16px;&quot;&gt;&lt;div&gt;&lt;span style=&quot;color: #0451a5;&quot;&gt;&quot;fdp-api_1.213_10100^1720088797100^124321&quot;&lt;/span&gt;&lt;/div&gt;&lt;div&gt;&lt;span style=&quot;color: rgb(4, 81, 165);&quot;&gt;&quot;fdp-api_1.213_10100^1720088797100^124059&quot;&lt;/span&gt;&lt;/div&gt;&lt;div&gt;&lt;span style=&quot;color: rgb(4, 81, 165);&quot;&gt;&quot;fdp-api_1.213_10100^1720088797100^124051&quot;&lt;/span&gt;&lt;/div&gt;&lt;div&gt;&lt;span style=&quot;color: #0451a5;&quot;&gt;&quot;fdp-api_1.213_10100^1720088797100^123850&quot;&lt;/span&gt;&lt;/div&gt;&lt;div&gt;&lt;span style=&quot;color: #0451a5;&quot;&gt;&quot;fdp-api_1.213_10100^1720088797100^124225&quot;&lt;/span&gt;&lt;/div&gt;&lt;div&gt;&lt;span style=&quot;color: rgb(4, 81, 165);&quot;&gt;&quot;fdp-api_1.213_10100^1720088797100^123945&quot;&lt;/span&gt;&lt;/div&gt;&lt;/div&gt;" style="rounded=0;whiteSpace=wrap;html=1;" vertex="1" parent="1">
          <mxGeometry x="-80" y="60" width="420" height="390" as="geometry" />
        </mxCell>
        <mxCell id="_UZ0ICPovGzDHKH6tCGx-22" value="&lt;h1 style=&quot;margin-top: 0px;&quot;&gt;执行异常&lt;/h1&gt;" style="text;html=1;whiteSpace=wrap;overflow=hidden;rounded=0;" vertex="1" parent="1">
          <mxGeometry x="-790" y="30" width="180" height="120" as="geometry" />
        </mxCell>
        <mxCell id="_UZ0ICPovGzDHKH6tCGx-23" value="" style="whiteSpace=wrap;html=1;" vertex="1" parent="1">
          <mxGeometry x="-810" y="520" width="610" height="450" as="geometry" />
        </mxCell>
        <mxCell id="_UZ0ICPovGzDHKH6tCGx-24" value="" style="group" vertex="1" connectable="0" parent="1">
          <mxGeometry x="-790" y="600" width="500" height="140" as="geometry" />
        </mxCell>
        <mxCell id="_UZ0ICPovGzDHKH6tCGx-25" value="" style="rounded=0;whiteSpace=wrap;html=1;" vertex="1" parent="_UZ0ICPovGzDHKH6tCGx-24">
          <mxGeometry width="500" height="140" as="geometry" />
        </mxCell>
        <mxCell id="_UZ0ICPovGzDHKH6tCGx-26" value="&lt;h1 style=&quot;margin-top: 0px;&quot;&gt;&lt;span style=&quot;font-weight: normal;&quot;&gt;&lt;font style=&quot;font-size: 16px;&quot;&gt;异常：PSQLException&lt;/font&gt;&lt;/span&gt;&lt;/h1&gt;&lt;div&gt;&lt;span style=&quot;font-weight: normal;&quot;&gt;&lt;font style=&quot;font-size: 16px;&quot;&gt;次数：19&lt;/font&gt;&lt;/span&gt;&lt;/div&gt;&lt;div&gt;&lt;span style=&quot;font-weight: normal;&quot;&gt;&lt;font style=&quot;font-size: 16px;&quot;&gt;&lt;br&gt;&lt;/font&gt;&lt;/span&gt;&lt;/div&gt;&lt;div&gt;&lt;span style=&quot;font-weight: normal;&quot;&gt;&lt;font style=&quot;font-size: 16px;&quot;&gt;涉及链路：（点击查看列表）&lt;/font&gt;&lt;/span&gt;&lt;/div&gt;" style="text;html=1;whiteSpace=wrap;overflow=hidden;rounded=0;" vertex="1" parent="_UZ0ICPovGzDHKH6tCGx-24">
          <mxGeometry x="10" y="10" width="230" height="110" as="geometry" />
        </mxCell>
        <mxCell id="_UZ0ICPovGzDHKH6tCGx-27" value="&lt;h1 style=&quot;margin-top: 0px; font-size: 16px;&quot;&gt;&lt;span style=&quot;font-size: 16px; font-weight: 400;&quot;&gt;类型：&lt;/span&gt;&lt;span style=&quot;font-weight: normal;&quot;&gt;POSTGRESQL&lt;/span&gt;&lt;/h1&gt;&lt;div&gt;&lt;span style=&quot;font-weight: normal; font-size: 16px;&quot;&gt;地址&lt;/span&gt;&lt;span style=&quot;font-weight: normal;&quot;&gt;&lt;font size=&quot;1&quot;&gt;：&lt;/font&gt;&lt;/span&gt;&lt;span style=&quot;color: rgb(4, 81, 165); background-color: rgb(255, 255, 255); font-family: IBMPlexMono, &amp;quot;Courier New&amp;quot;, monospace, Consolas, &amp;quot;Courier New&amp;quot;, monospace; white-space: pre;&quot;&gt;&lt;font style=&quot;font-size: 16px;&quot;&gt;192.168.1.213:5432&lt;/font&gt;&lt;/span&gt;&lt;/div&gt;" style="text;html=1;whiteSpace=wrap;overflow=hidden;rounded=0;" vertex="1" parent="_UZ0ICPovGzDHKH6tCGx-24">
          <mxGeometry x="250" y="10" width="230" height="110" as="geometry" />
        </mxCell>
        <mxCell id="_UZ0ICPovGzDHKH6tCGx-28" value="" style="group" vertex="1" connectable="0" parent="1">
          <mxGeometry x="-790" y="780" width="500" height="160" as="geometry" />
        </mxCell>
        <mxCell id="_UZ0ICPovGzDHKH6tCGx-29" value="" style="rounded=0;whiteSpace=wrap;html=1;" vertex="1" parent="_UZ0ICPovGzDHKH6tCGx-28">
          <mxGeometry width="500" height="149.33333333333331" as="geometry" />
        </mxCell>
        <mxCell id="_UZ0ICPovGzDHKH6tCGx-30" value="&lt;h1 style=&quot;margin-top: 0px;&quot;&gt;&lt;span style=&quot;font-size: 19px; font-weight: normal;&quot;&gt;&lt;font style=&quot;font-size: 16px;&quot;&gt;异常：&lt;/font&gt;&lt;/span&gt;&lt;font style=&quot;font-size: 16px; font-weight: normal;&quot;&gt;STRING-META-DATA-NOT-FOUND&lt;/font&gt;&lt;/h1&gt;&lt;div&gt;&lt;span style=&quot;font-weight: normal;&quot;&gt;&lt;font style=&quot;font-size: 16px;&quot;&gt;次数：6&lt;/font&gt;&lt;/span&gt;&lt;/div&gt;&lt;div&gt;&lt;span style=&quot;font-weight: normal;&quot;&gt;&lt;font style=&quot;font-size: 16px;&quot;&gt;&lt;br&gt;&lt;/font&gt;&lt;/span&gt;&lt;/div&gt;&lt;div&gt;&lt;span style=&quot;font-weight: normal;&quot;&gt;&lt;font style=&quot;font-size: 16px;&quot;&gt;涉及链路：（点击查看列表）&lt;/font&gt;&lt;/span&gt;&lt;/div&gt;" style="text;html=1;whiteSpace=wrap;overflow=hidden;rounded=0;" vertex="1" parent="_UZ0ICPovGzDHKH6tCGx-28">
          <mxGeometry x="10" y="10.666666666666666" width="220" height="149.33333333333331" as="geometry" />
        </mxCell>
        <mxCell id="_UZ0ICPovGzDHKH6tCGx-31" value="&lt;h1 style=&quot;margin-top: 0px; font-size: 16px;&quot;&gt;&lt;span style=&quot;font-size: 16px; font-weight: 400;&quot;&gt;类型：&lt;/span&gt;&lt;span style=&quot;font-weight: normal;&quot;&gt;POSTGRESQL&lt;/span&gt;&lt;/h1&gt;&lt;div&gt;&lt;span style=&quot;font-weight: normal; font-size: 16px;&quot;&gt;地址&lt;/span&gt;&lt;span style=&quot;font-weight: normal;&quot;&gt;&lt;font size=&quot;1&quot;&gt;：&lt;/font&gt;&lt;/span&gt;&lt;span style=&quot;color: rgb(4, 81, 165); background-color: rgb(255, 255, 255); font-family: IBMPlexMono, &amp;quot;Courier New&amp;quot;, monospace, Consolas, &amp;quot;Courier New&amp;quot;, monospace; white-space: pre;&quot;&gt;&lt;font style=&quot;font-size: 16px;&quot;&gt;192.168.1.213:5432&lt;/font&gt;&lt;/span&gt;&lt;/div&gt;" style="text;html=1;whiteSpace=wrap;overflow=hidden;rounded=0;" vertex="1" parent="_UZ0ICPovGzDHKH6tCGx-28">
          <mxGeometry x="250" y="10.666666666666666" width="230" height="117.33333333333333" as="geometry" />
        </mxCell>
        <mxCell id="_UZ0ICPovGzDHKH6tCGx-32" value="" style="endArrow=classic;html=1;rounded=0;exitX=1.022;exitY=0.829;exitDx=0;exitDy=0;exitPerimeter=0;entryX=-0.008;entryY=0.456;entryDx=0;entryDy=0;entryPerimeter=0;" edge="1" parent="1" source="_UZ0ICPovGzDHKH6tCGx-30" target="_UZ0ICPovGzDHKH6tCGx-33">
          <mxGeometry width="50" height="50" relative="1" as="geometry">
            <mxPoint x="-180" y="910" as="sourcePoint" />
            <mxPoint x="-80" y="680" as="targetPoint" />
          </mxGeometry>
        </mxCell>
        <mxCell id="_UZ0ICPovGzDHKH6tCGx-33" value="&lt;div style=&quot;background-color: rgb(255, 255, 255); font-family: IBMPlexMono, &amp;quot;Courier New&amp;quot;, monospace, Consolas, &amp;quot;Courier New&amp;quot;, monospace; line-height: 18px; white-space: pre; font-size: 16px;&quot;&gt;&lt;div&gt;&lt;span style=&quot;color: #0451a5;&quot;&gt;&quot;fdp-api_1.213_10100^1720088797100^124321&quot;&lt;/span&gt;&lt;/div&gt;&lt;div&gt;&lt;span style=&quot;color: rgb(4, 81, 165);&quot;&gt;&quot;fdp-api_1.213_10100^1720088797100^124059&quot;&lt;/span&gt;&lt;/div&gt;&lt;div&gt;&lt;span style=&quot;color: rgb(4, 81, 165);&quot;&gt;&quot;fdp-api_1.213_10100^1720088797100^124051&quot;&lt;/span&gt;&lt;/div&gt;&lt;div&gt;&lt;span style=&quot;color: #0451a5;&quot;&gt;&quot;fdp-api_1.213_10100^1720088797100^123850&quot;&lt;/span&gt;&lt;/div&gt;&lt;div&gt;&lt;span style=&quot;color: #0451a5;&quot;&gt;&quot;fdp-api_1.213_10100^1720088797100^124225&quot;&lt;/span&gt;&lt;/div&gt;&lt;div&gt;&lt;span style=&quot;color: rgb(4, 81, 165);&quot;&gt;&quot;fdp-api_1.213_10100^1720088797100^123945&quot;&lt;/span&gt;&lt;/div&gt;&lt;/div&gt;" style="rounded=0;whiteSpace=wrap;html=1;" vertex="1" parent="1">
          <mxGeometry x="-80" y="560" width="420" height="390" as="geometry" />
        </mxCell>
        <mxCell id="_UZ0ICPovGzDHKH6tCGx-34" value="&lt;h1 style=&quot;margin-top: 0px;&quot;&gt;慢执行&lt;/h1&gt;" style="text;html=1;whiteSpace=wrap;overflow=hidden;rounded=0;" vertex="1" parent="1">
          <mxGeometry x="-790" y="530" width="180" height="120" as="geometry" />
        </mxCell>
      </root>
    </mxGraphModel>
  </diagram>
</mxfile>
